<!--?xml version="1.0" encoding="utf-8"?-->
<!-- Generator: Adobe Illustrator 15.1.0, SVG Export Plug-In . SVG Version: 6.00 Build 0)  -->

<svg version="1.1" id="_x32_" xmlns="http://www.w3.org/2000/svg" xmlns:xlink="http://www.w3.org/1999/xlink" x="0px" y="0px" width="512px" height="512px" viewBox="0 0 512 512" style="width: 256px; height: 256px; opacity: 1;" xml:space="preserve">
<style type="text/css">

	.st0{fill:#4B4B4B;}

</style>
<g>
	<path class="st0" d="M491.875,173.797L512,141.578l-7.25-8.859l-24.156,10.469c0,0-28.188-24.563-30.609-23.766
		c-1.922,0.641-276.703,0.266-390.438,0.078v-5.969L23,96.578H12.563v22.844c-0.953,0-1.469,0-1.469,0
		C4.969,119.422,0,124.391,0,130.531v35.813c0,1.719,0.391,3.406,1.156,4.953l5.938,11.875h489.813L491.875,173.797z
		 M388.109,174.875l-32.984-43.063h9.563l32.969,43.063H388.109z M419.344,174.875l-32.969-43.063h9.531l32.984,43.063H419.344z
		 M450.594,174.875l-33-43.063h9.563l32.969,43.063H450.594z" style="fill: rgb(75, 75, 75);"></path>
	<path class="st0" d="M500.969,190.75H10.906l7.766,15.563c1.891,3.766,5.719,6.141,9.938,6.141h174.828
		c24.531,0,44.375,19.875,44.375,44.391v13.859c0,9.203,7.469,16.656,16.656,16.656h60.359c11.547,0,21.875,7.156,25.953,17.953
		l29.938,79.5l-8.344,13.766c-2.063,3.422-2.125,7.703-0.156,11.188c1.969,3.5,5.656,5.656,9.656,5.656h80.594
		c15.656,0,30.141-8.234,38.141-21.672c8.016-13.438,8.359-30.094,0.891-43.844c0,0-33.656-61.781-38.625-71.406
		c-16.438-31.859,44.938-52.563,44.938-52.563c4.469-5.219,5.281-12.641,2.016-18.688L500.969,190.75z M332.266,252.422
		c0,11.938-8.656,21.609-19.313,21.609H280.75c-10.672,0-19.328-9.672-19.328-21.609v-9.609c0-11.938,8.656-21.609,19.328-21.609
		h32.203c1.922,0,3.797,0.328,5.547,0.922l-16.25,28.438l10.438,7.813l19.484-17.766c0.063,0.734,0.094,1.453,0.094,2.203V252.422z" style="fill: rgb(75, 75, 75);"></path>
</g>
</svg>
